<svg width="55" height="51" viewBox="0 0 55 51" fill="none" xmlns="http://www.w3.org/2000/svg">
<path d="M54.3705 42.4986C54.761 42.8892 54.761 43.5223 54.3705 43.9129L48.0067 50.277C47.6162 50.6675 46.983 50.6675 46.5925 50.277C46.202 49.8865 46.202 49.2533 46.5925 48.8628L52.2492 43.2058L46.5922 37.5491C46.2017 37.1586 46.2017 36.5254 46.5922 36.1349C46.9827 35.7443 47.6159 35.7443 48.0064 36.1348L54.3705 42.4986ZM2.99861 0.330298C2.99863 11.039 3.50045 18.9785 4.90401 24.8867C6.30092 30.7669 8.56798 34.539 12.0408 37.0346C15.552 39.5578 20.4298 40.8762 27.267 41.541C34.0979 42.2051 42.7287 42.206 53.6634 42.2058L53.6634 44.2058C42.7664 44.206 34.0232 44.2072 27.0735 43.5316C20.1301 42.8565 14.8207 41.4952 10.8737 38.6588C6.88823 35.7948 4.42599 31.5276 2.95817 25.3489C1.49699 19.1982 0.998629 11.0593 0.998614 0.3303L2.99861 0.330298Z" fill="black"/>
</svg>
