<svg width="31" height="31" viewBox="0 0 31 31" fill="none" xmlns="http://www.w3.org/2000/svg">
<g clip-path="url(#clip0_9_1895)">
<path d="M14.4781 21.1572L12.87 19.5491C12.593 19.272 12.593 18.8228 12.87 18.5457C13.1471 18.2686 13.5963 18.2686 13.8734 18.5457L16.7113 21.3836C16.9884 21.6607 16.9884 22.1099 16.7113 22.387L13.8734 25.2249C13.5963 25.502 13.1471 25.502 12.87 25.2249C12.593 24.9478 12.593 24.4986 12.87 24.2216L14.5131 22.5785C13.1826 22.5343 11.9003 22.4012 10.6927 22.1897C11.7221 25.8493 13.5461 28.2706 15.5001 28.2706C18.3453 28.2706 20.9149 23.1371 21.1573 16.522L19.5492 18.1301C19.2722 18.4072 18.8229 18.4072 18.5459 18.1301C18.2688 17.853 18.2688 17.4038 18.5459 17.1268L21.3838 14.2888C21.6609 14.0118 22.1101 14.0118 22.3871 14.2888L25.2251 17.1268C25.5021 17.4038 25.5021 17.853 25.2251 18.1301C24.948 18.4072 24.4988 18.4072 24.2217 18.1301L22.5786 16.487C22.3349 23.8224 19.3901 29.6896 15.5001 29.6896C12.6279 29.6896 10.2709 26.4908 9.13615 21.864C4.50937 20.7292 1.31055 18.3722 1.31055 15.5C1.31055 12.6277 4.50937 10.2708 9.13615 9.136C10.2709 4.50922 12.6279 1.31039 15.5001 1.31039C17.6317 1.31039 19.5107 3.06832 20.8118 6.00353C20.9706 6.36174 20.809 6.78087 20.4508 6.93966C20.0926 7.09846 19.6734 6.93679 19.5146 6.57858C18.4161 4.10054 16.9505 2.72935 15.5001 2.72935C13.5461 2.72935 11.7221 5.15066 10.6927 8.81029C12.1964 8.54697 13.8158 8.4052 15.5001 8.4052C23.2891 8.4052 29.6898 11.4371 29.6898 15.5C29.6898 17.6315 27.9318 19.5105 24.9966 20.8117C24.6384 20.9705 24.2193 20.8088 24.0605 20.4506C23.9017 20.0924 24.0634 19.6733 24.4216 19.5145C26.8996 18.416 28.2708 16.9504 28.2708 15.5C28.2708 12.5099 22.6009 9.82416 15.5001 9.82416C13.6542 9.82416 11.905 10.0057 10.327 10.3268C10.0058 11.9049 9.82431 13.6541 9.82431 15.5C9.82431 17.3459 10.0058 19.0951 10.327 20.6732C11.6108 20.9345 13.0079 21.1033 14.4781 21.1572ZM8.81044 10.6925C5.15081 11.722 2.72951 13.546 2.72951 15.5C2.72951 17.454 5.15081 19.278 8.81044 20.3075C8.54712 18.8037 8.40535 17.1843 8.40535 15.5C8.40535 13.8157 8.54712 12.1963 8.81044 10.6925Z" fill="#6ACE65" stroke="#6ACE65" stroke-width="0.935484"/>
</g>
<defs>
<clipPath id="clip0_9_1895">
<rect width="31" height="31" fill="white"/>
</clipPath>
</defs>
</svg>
